# xmcd
#
# Track frame offsets:
#	150
#	34612
#	61676
#	77070
#	86795
#	119221
#	151173
#
# Disc length: 2463 seconds
#
# Revision: 1
# Processed by: cddbd v1.5.1PL0 Copyright (c) Steve Scherf et al.
# Submitted via: audiograbber 1.83.01
#
DISCID=50099d07
DTITLE=Ants Climb Tree - Ants Climb Tree
DYEAR=1900
DGENRE=
TTITLE0=The Haunted Swing
TTITLE1=They See Me While I'm Sleeping
TTITLE2=How Quickly Now Becomes Before
TTITLE3=Pull of Gravity
TTITLE4=Ang
TTITLE5=The Telephone Wants to Kill Me
TTITLE6=Hope Lashes Out
EXTD=
EXTT0=
EXTT1=
EXTT2=
EXTT3=
EXTT4=
EXTT5=
EXTT6=
PLAYORDER=
